<svg width="74" height="86" xmlns="http://www.w3.org/2000/svg" xmlns:sketch="http://www.bohemiancoding.com/sketch/ns"><title>ampersand</title><path d="M35.766 37.917l14.843 17.941.48-.535c1.601-1.742 3.117-3.447 4.539-5.125 1.426-1.669 5.078-5.644 6.395-7.351l5.837 10.61c-.999 1.424-2.308 3.079-3.93 4.966-1.616 1.889-3.548 4.058-5.793 6.513l15.276 18.852h-15.485l-8.225-10.092c-7.55 7.798-15.397 11.694-23.546 11.694-7.303 0-13.497-2.328-18.586-6.998-4.985-4.696-7.476-10.499-7.476-17.405 0-8.225 3.949-15.059 11.854-20.507l5.394-3.684c.072-.034.196-.125.372-.27l.747-.583c-5.444-5.805-8.169-11.517-8.169-17.145 0-5.554 1.818-10.075 5.447-13.562 3.703-3.489 8.476-5.235 14.311-5.235 5.664 0 10.342 1.689 14.044 5.072 3.702 3.388 5.554 7.655 5.554 12.816 0 3.56-1.013 6.785-3.044 9.667-1.994 2.887-5.608 6.337-10.839 10.361zm-9.88 6.996l-.695.481c-5.091 3.526-8.563 6.354-10.412 8.486-1.816 2.139-2.722 4.402-2.722 6.785 0 3.419 1.37 6.552 4.11 9.396 2.846 2.743 5.979 4.112 9.401 4.112 4.803 0 10.342-3.148 16.604-9.448l-16.286-19.812zm2.672-15.753l1.013-.75c1.745-1.31 3.187-2.463 4.326-3.44 1.137-.98 1.96-1.808 2.458-2.486 1.066-1.313 1.601-2.937 1.601-4.856 0-2.173-.73-3.933-2.189-5.29-1.46-1.351-3.42-2.03-5.876-2.03-2.242 0-4.127.696-5.66 2.083-1.529 1.32-2.298 3.009-2.298 5.075 0 2.422.963 4.805 2.886 7.157l3.095 3.737c.108.177.322.447.644.8z" sketch:type="MSShapeGroup" fill="#b7c0c3"/></svg>